<svg width="178" height="592" viewBox="0 0 178 592" fill="none" xmlns="http://www.w3.org/2000/svg">
<path d="M89 0C39.8467 0 3.89031e-06 39.8467 3.89031e-06 89H89V0Z" fill="#04E6B5"/>
<path d="M0 325C2.14856e-06 374.153 39.8467 414 89 414L89 325H0Z" fill="#04E6B5"/>
<path d="M117.495 117.495L89 133.5L117.495 149.505L133.5 178L149.505 149.505L178 133.5L149.505 117.495L133.5 89L117.495 117.495Z" fill="#04D9AB"/>
<path d="M117.495 442.495L89 458.5L117.495 474.505L133.5 503L149.505 474.505L178 458.5L149.505 442.495L133.5 414L117.495 442.495Z" fill="#04D9AB"/>
<path d="M178 0H148.333V29.6667H118.667V59.3333H89V89H178V0Z" fill="#04E0B0"/>
<path d="M178 325H148.333V354.667H118.667V384.333H89V414H178V325Z" fill="#04E0B0"/>
<path fill-rule="evenodd" clip-rule="evenodd" d="M44.5 100.867C26.4771 100.867 11.8667 115.477 11.8667 133.5C11.8667 151.523 26.4771 166.133 44.5 166.133C62.5229 166.133 77.1333 151.523 77.1333 133.5C77.1333 115.477 62.5229 100.867 44.5 100.867ZM3.89031e-06 133.5C3.89031e-06 108.923 19.9233 89 44.5 89C69.0767 89 89 108.923 89 133.5C89 158.077 69.0767 178 44.5 178C19.9233 178 3.89031e-06 158.077 3.89031e-06 133.5Z" fill="#04D7AA"/>
<path fill-rule="evenodd" clip-rule="evenodd" d="M44.5 121.633C37.9462 121.633 32.6333 126.946 32.6333 133.5C32.6333 140.054 37.9462 145.367 44.5 145.367C51.0538 145.367 56.3667 140.054 56.3667 133.5C56.3667 126.946 51.0538 121.633 44.5 121.633ZM20.7667 133.5C20.7667 120.392 31.3924 109.767 44.5 109.767C57.6076 109.767 68.2333 120.392 68.2333 133.5C68.2333 146.608 57.6076 157.233 44.5 157.233C31.3924 157.233 20.7667 146.608 20.7667 133.5Z" fill="#04D7AA"/>
<path fill-rule="evenodd" clip-rule="evenodd" d="M44.5 425.867C26.4771 425.867 11.8667 440.477 11.8667 458.5C11.8667 476.523 26.4771 491.133 44.5 491.133C62.5229 491.133 77.1333 476.523 77.1333 458.5C77.1333 440.477 62.5229 425.867 44.5 425.867ZM3.89031e-06 458.5C3.89031e-06 433.923 19.9233 414 44.5 414C69.0767 414 89 433.923 89 458.5C89 483.077 69.0767 503 44.5 503C19.9233 503 3.89031e-06 483.077 3.89031e-06 458.5Z" fill="#04D7AA"/>
<path fill-rule="evenodd" clip-rule="evenodd" d="M44.5 446.633C37.9462 446.633 32.6333 451.946 32.6333 458.5C32.6333 465.054 37.9462 470.367 44.5 470.367C51.0538 470.367 56.3667 465.054 56.3667 458.5C56.3667 451.946 51.0538 446.633 44.5 446.633ZM20.7667 458.5C20.7667 445.392 31.3924 434.767 44.5 434.767C57.6076 434.767 68.2333 445.392 68.2333 458.5C68.2333 471.608 57.6076 482.233 44.5 482.233C31.3924 482.233 20.7667 471.608 20.7667 458.5Z" fill="#04D7AA"/>
<path d="M89 267C138.153 267 178 227.153 178 178L89 178L89 267Z" fill="#04E6B5"/>
<path d="M89 592C138.153 592 178 552.153 178 503H89L89 592Z" fill="#04E6B5"/>
<path d="M47.1342 178.507C45.1171 177.831 43.8829 177.831 41.8658 178.507C36.9451 180.155 37.1585 190.584 38.6791 200.874C34.8293 191.211 29.779 182.083 24.6959 183.128C22.6122 183.556 21.5447 184.176 20.1392 185.773C16.7592 189.613 21.9782 198.329 28.3351 206.371C20.2797 200.031 11.5518 194.831 7.7192 198.22C6.12554 199.629 5.50834 200.698 5.08471 202.782C4.05831 207.833 13.0657 212.83 22.6634 216.648C12.4423 215.156 2.14343 214.979 0.506657 219.866C-0.168885 221.883 -0.168885 223.117 0.506656 225.134C2.14343 230.021 12.4423 229.844 22.6634 228.352C13.0657 232.17 4.05827 237.167 5.08467 242.218C5.5083 244.302 6.1255 245.371 7.71916 246.78C11.5517 250.169 20.2795 244.969 28.3348 238.63C21.9779 246.671 16.7591 255.387 20.1391 259.227C21.5446 260.824 22.6121 261.444 24.6957 261.872C29.7789 262.917 34.8293 253.789 38.6792 244.126C37.1585 254.416 36.945 264.845 41.8658 266.493C43.8829 267.169 45.1171 267.169 47.1342 266.493C52.0551 264.845 51.8414 254.415 50.3207 244.125C54.1706 253.789 59.2211 262.917 64.3044 261.872C66.3881 261.444 67.4556 260.824 68.8611 259.227C72.2411 255.387 67.0222 246.671 60.6653 238.63C68.7206 244.969 77.4484 250.169 81.281 246.78C82.8746 245.371 83.4918 244.302 83.9155 242.218C84.9419 237.167 75.9345 232.171 66.3368 228.352C76.5579 229.844 86.8566 230.021 88.4933 225.134C89.1689 223.117 89.1689 221.883 88.4933 219.866C86.8566 214.979 76.5579 215.156 66.3368 216.648C75.9345 212.829 84.9418 207.833 83.9154 202.782C83.4918 200.698 82.8746 199.629 81.2809 198.22C77.4483 194.831 68.7204 200.031 60.665 206.371C67.022 198.329 72.241 189.613 68.8609 185.773C67.4555 184.176 66.3879 183.556 64.3043 183.128C59.2211 182.083 54.1707 191.211 50.3208 200.874C51.8415 190.584 52.055 180.155 47.1342 178.507Z" fill="#04D9AB"/>
<path d="M47.1342 503.507C45.1171 502.831 43.8829 502.831 41.8658 503.507C36.9451 505.155 37.1585 515.584 38.6791 525.874C34.8293 516.211 29.779 507.084 24.6959 508.128C22.6122 508.556 21.5447 509.176 20.1392 510.773C16.7592 514.613 21.9782 523.329 28.3351 531.371C20.2797 525.031 11.5518 519.831 7.7192 523.22C6.12554 524.629 5.50834 525.698 5.08471 527.782C4.05831 532.833 13.0657 537.829 22.6634 541.648C12.4423 540.156 2.14343 539.979 0.506657 544.866C-0.168885 546.883 -0.168885 548.117 0.506656 550.134C2.14343 555.021 12.4423 554.844 22.6634 553.352C13.0657 557.171 4.05827 562.167 5.08467 567.218C5.5083 569.302 6.1255 570.371 7.71916 571.78C11.5517 575.169 20.2795 569.969 28.3348 563.63C21.9779 571.671 16.7591 580.387 20.1391 584.227C21.5446 585.824 22.6121 586.444 24.6957 586.872C29.7789 587.917 34.8293 578.789 38.6792 569.126C37.1585 579.416 36.945 589.845 41.8658 591.493C43.8829 592.169 45.1171 592.169 47.1342 591.493C52.0551 589.845 51.8414 579.415 50.3207 569.125C54.1706 578.789 59.2211 587.917 64.3044 586.872C66.3881 586.444 67.4556 585.824 68.8611 584.227C72.2411 580.387 67.0222 571.671 60.6653 563.63C68.7206 569.969 77.4484 575.169 81.281 571.78C82.8746 570.371 83.4918 569.302 83.9155 567.218C84.9419 562.167 75.9345 557.171 66.3368 553.352C76.5579 554.844 86.8566 555.021 88.4933 550.134C89.1689 548.117 89.1689 546.883 88.4933 544.866C86.8566 539.979 76.5579 540.156 66.3368 541.648C75.9345 537.829 84.9418 532.833 83.9154 527.782C83.4918 525.698 82.8746 524.629 81.2809 523.22C77.4483 519.831 68.7204 525.031 60.665 531.371C67.022 523.329 72.241 514.613 68.8609 510.773C67.4555 509.176 66.3879 508.556 64.3043 508.128C59.2211 507.083 54.1707 516.211 50.3208 525.874C51.8415 515.584 52.055 505.155 47.1342 503.507Z" fill="#04D9AB"/>
</svg>
